<svg width="116" height="115" viewBox="0 0 116 115" fill="none" xmlns="http://www.w3.org/2000/svg">
<path d="M82.6046 113.438H33.5504C16.1361 113.438 2.0155 99.317 2.0155 81.9028V32.8486C2.0155 15.4343 16.1361 1.31372 33.5504 1.31372H82.6046C100.019 1.31372 114.139 15.4343 114.139 32.8486V81.9028C114.139 99.317 100.036 113.438 82.6046 113.438Z" fill="white"/>
<path opacity="0.5" d="M95.7791 4.22217C100.755 12.5964 103.628 22.3897 103.628 32.8488C103.628 63.8055 78.5226 88.9108 47.5658 88.9108H42.31C25.8944 88.9108 11.3008 81.1146 2.0155 69.0438V81.9205C2.0155 99.3348 16.1361 113.455 33.5504 113.455H82.6046C100.019 113.455 114.139 99.3348 114.139 81.9205V32.8663C114.139 20.1297 106.606 9.21519 95.7791 4.22217Z" fill="#0091D7"/>
<path d="M82.6046 114.752H33.5503C15.4353 114.752 0.701538 100.018 0.701538 81.903V32.8488C0.701538 14.7338 15.4353 0 33.5503 0H82.6046C100.72 0 115.453 14.7338 115.453 32.8488V81.903C115.453 100.018 100.72 114.752 82.6046 114.752ZM33.5503 2.6279C16.8894 2.6279 3.32944 16.1879 3.32944 32.8488V81.903C3.32944 98.5639 16.8894 112.124 33.5503 112.124H82.6046C99.2655 112.124 112.825 98.5639 112.825 81.903V32.8488C112.825 16.1879 99.2655 2.6279 82.6046 2.6279H33.5503Z" fill="#21365F"/>
<path d="M46.7424 57.1482L45.411 62.404C44.6051 65.5925 42.3976 68.1504 39.4894 69.4468L58.095 76.875L76.683 69.4468C73.7748 68.1504 71.5498 65.575 70.7615 62.404L69.43 57.1482H46.7424Z" fill="white"/>
<path opacity="0.5" d="M69.3249 72.39L76.683 69.4468C73.7748 68.1504 71.5498 65.575 70.7615 62.404L69.43 57.1482H62.9303L64.6998 64.191C65.5056 67.3445 67.1349 70.1476 69.3249 72.39Z" fill="#0091D7"/>
<path d="M58.0949 78.1889C57.9373 78.1889 57.7621 78.1539 57.6044 78.1013L38.9989 70.6731C38.5083 70.4804 38.1754 70.0074 38.1754 69.4818C38.1579 68.9562 38.4733 68.4657 38.9463 68.2555C41.5392 67.0992 43.4312 64.8392 44.132 62.0886L45.4635 56.8328C45.6036 56.2547 46.1292 55.8342 46.7424 55.8342H69.43C70.0256 55.8342 70.5512 56.2372 70.7089 56.8328L72.0404 62.0886C72.7411 64.8567 74.6332 67.0992 77.2261 68.2555C77.7166 68.4657 78.0145 68.9562 77.9969 69.4818C77.9794 70.0074 77.6641 70.4804 77.1735 70.6731L58.5855 78.1013C58.4278 78.1539 58.2526 78.1889 58.0949 78.1889ZM42.4326 69.219L58.0949 75.4559L73.7222 69.219C71.6374 67.6072 70.1308 65.3472 69.465 62.7193L68.3963 58.4621H47.7585L46.6898 62.7193C46.0241 65.3472 44.535 67.6072 42.4326 69.219Z" fill="#21365F"/>
<path d="M105.362 87.4913C105.24 80.0456 99.6859 73.7561 92.3103 72.4772L79.1883 70.2172C78.3123 70.0595 77.4714 69.8143 76.683 69.4639L58.095 76.8921L39.4894 69.4639C38.701 69.8143 37.8601 70.077 36.9841 70.2172L23.8621 72.4772C16.469 73.7561 10.9329 80.0456 10.7927 87.4913C10.7752 89.5586 10.7752 96.9517 10.7752 103.679C16.5215 109.688 24.5804 113.437 33.5503 113.437H82.6046C91.5745 113.437 99.6334 109.688 105.38 103.679C105.397 96.9517 105.397 89.5586 105.362 87.4913Z" fill="white"/>
<path opacity="0.5" d="M105.362 87.4912C105.257 81.0791 101.123 75.5255 95.2535 73.3005C97.1456 75.8233 98.3019 78.9067 98.3544 82.2354C98.372 83.6194 98.3895 87.3861 98.3895 91.7484C98.3895 96.6188 95.9193 101.226 91.7321 103.732C87.0194 106.552 81.5008 108.182 75.5968 108.182H26.5426C21.059 108.182 15.9083 106.763 11.4234 104.292C17.1172 109.916 24.9133 113.437 33.5503 113.437H82.6045C91.5744 113.437 99.6334 109.688 105.38 103.679C105.397 96.9517 105.397 89.5585 105.362 87.4912Z" fill="#0091D7"/>
<path d="M82.6046 114.751H33.5503C24.5104 114.751 16.1011 111.142 9.82913 104.59C9.60138 104.345 9.46123 104.012 9.46123 103.679C9.46123 97.4771 9.44371 89.6109 9.47875 87.4735C9.6189 79.4321 15.558 72.5821 23.6344 71.1805L36.7564 68.9205C37.5097 68.7979 38.2455 68.5701 38.9463 68.2548C39.2792 68.1146 39.6471 68.0971 39.9624 68.2373L58.0775 75.4552L76.175 68.2373C76.5078 68.0971 76.8757 68.1146 77.1911 68.2548C77.8918 68.5701 78.6277 68.7804 79.381 68.9205L92.503 71.1805C100.562 72.5821 106.518 79.4321 106.659 87.4735C106.694 89.7861 106.694 98.6334 106.676 103.679C106.676 104.012 106.554 104.345 106.308 104.59C100.071 111.142 91.6445 114.751 82.6046 114.751ZM12.0891 103.136C17.818 108.935 25.4214 112.123 33.5503 112.123H82.6046C90.7335 112.123 98.3369 108.935 104.066 103.136C104.066 98.0202 104.083 89.716 104.048 87.5086C103.943 80.7286 98.8976 74.9472 92.0825 73.7734L78.9605 71.5134C78.1722 71.3732 77.4188 71.163 76.683 70.8827L58.603 78.1007C58.2877 78.2233 57.9373 78.2233 57.622 78.1007L39.5069 70.8652C38.7711 71.163 38.0003 71.3732 37.2294 71.4959L24.1074 73.7559C17.2924 74.9297 12.2468 80.7111 12.1417 87.491C12.0891 89.5758 12.0891 97.0391 12.0891 103.136Z" fill="#21365F"/>
<path d="M58.0774 63.6823C44.9729 63.6823 34.3036 50.8231 34.3036 35.0206C34.3036 20.427 43.8517 10.6337 58.0774 10.6337C72.3031 10.6337 81.8512 20.4445 81.8512 35.0206C81.8512 50.8231 71.1994 63.6823 58.0774 63.6823ZM58.0774 13.2441C45.2357 13.2441 36.9316 21.7935 36.9316 35.0031C36.9316 49.369 46.4095 61.0369 58.0774 61.0369C69.7453 61.0369 79.2233 49.3515 79.2233 35.0031C79.2233 21.7935 70.9366 13.2441 58.0774 13.2441Z" fill="#21365F"/>
<path d="M88.6662 114.174C87.948 114.174 87.3523 113.578 87.3523 112.86V97.9508C87.3523 97.215 87.948 96.6368 88.6662 96.6368C89.3845 96.6368 89.9802 97.2325 89.9802 97.9508V112.86C89.9802 113.578 89.3845 114.174 88.6662 114.174Z" fill="#21365F"/>
<path d="M27.5062 114.174C26.7879 114.174 26.1922 113.578 26.1922 112.86V97.9508C26.1922 97.215 26.7879 96.6368 27.5062 96.6368C28.2244 96.6368 28.8201 97.2325 28.8201 97.9508V112.86C28.8201 113.578 28.242 114.174 27.5062 114.174Z" fill="#21365F"/>
<path d="M39.4894 69.4468L45.8139 113.438H70.341L76.683 69.4468L58.095 76.875L39.4894 69.4468Z" fill="white"/>
<path opacity="0.5" d="M72.4258 71.1462L67.4854 105.519C67.1174 108.059 64.945 109.934 62.3872 109.934H45.3234L45.8314 113.438H70.3585L76.683 69.4468L72.4258 71.1462Z" fill="#0091D7"/>
<path d="M70.341 114.751H45.8139C45.1657 114.751 44.6051 114.278 44.5175 113.63L38.193 69.6389C38.1229 69.1834 38.3156 68.7103 38.6835 68.4125C39.0514 68.1147 39.542 68.0446 39.9799 68.2198L58.095 75.4378L76.1925 68.2198C76.6305 68.0446 77.121 68.1147 77.4889 68.4125C77.8568 68.7103 78.0495 69.1658 77.9794 69.6389L71.655 113.63C71.5498 114.278 71.0067 114.751 70.341 114.751ZM46.9527 112.123H69.2022L75.0537 71.5134L58.5855 78.0832C58.2702 78.2058 57.9198 78.2058 57.6044 78.0832L41.1187 71.5134L46.9527 112.123Z" fill="#21365F"/>
<path d="M80.5373 35.0206C80.5373 50.1223 70.4811 62.3684 58.0774 62.3684C45.6737 62.3684 35.6176 50.1223 35.6176 35.0206C35.6176 19.9189 45.6737 11.9476 58.0774 11.9476C70.4811 11.9476 80.5373 19.9014 80.5373 35.0206Z" fill="white"/>
<path opacity="0.5" d="M71.4447 15.8022C73.8799 19.4112 75.2815 24.0889 75.2815 29.7477C75.2815 44.8493 65.2254 57.0954 52.8216 57.0954C48.6345 57.0954 44.7452 55.6763 41.3815 53.2586C45.4985 58.8298 51.4376 62.3512 58.0775 62.3512C70.4812 62.3512 80.5373 50.1052 80.5373 35.0035C80.5373 26.016 76.9633 19.5689 71.4447 15.8022Z" fill="#0091D7"/>
<path d="M58.0774 63.6823C44.9729 63.6823 34.3036 50.8231 34.3036 35.0206C34.3036 20.427 43.8517 10.6337 58.0774 10.6337C72.3031 10.6337 81.8512 20.4445 81.8512 35.0206C81.8512 50.8231 71.1994 63.6823 58.0774 63.6823ZM58.0774 13.2441C45.2357 13.2441 36.9316 21.7935 36.9316 35.0031C36.9316 49.369 46.4095 61.0369 58.0774 61.0369C69.7453 61.0369 79.2233 49.3515 79.2233 35.0031C79.2233 21.7935 70.9366 13.2441 58.0774 13.2441Z" fill="#21365F"/>
<path d="M79.1007 25.9806C75.9122 16.7655 67.7131 11.9476 58.095 11.9476C48.4593 11.9476 40.2778 16.7655 37.0893 25.9806C48.9849 30.1152 67.17 30.1152 79.1007 25.9806Z" fill="white"/>
<path opacity="0.5" d="M71.7425 27.8732C74.3704 27.3826 76.8407 26.7519 79.1007 25.9636C75.9121 16.7484 67.7131 11.9305 58.095 11.9305C56.5182 11.9305 54.994 12.0707 53.5049 12.3335C61.774 13.7526 68.5715 19.0259 71.7425 27.8732Z" fill="#0091D7"/>
<path d="M58.0775 30.3959C50.404 30.3959 42.748 29.3273 36.6338 27.2074C35.9505 26.9797 35.5826 26.2263 35.8279 25.5431C39.0689 16.2053 47.3906 10.6166 58.0775 10.6166C68.7643 10.6166 77.086 16.1877 80.327 25.5431C80.5723 26.2263 80.2044 26.9797 79.5212 27.2074C73.4069 29.3448 65.7509 30.3959 58.0775 30.3959ZM38.7886 25.1576C50.0536 28.6615 66.1013 28.6615 77.3663 25.1576C74.2128 17.6769 67.0999 13.2445 58.0775 13.2445C49.055 13.2445 41.9421 17.6769 38.7886 25.1576Z" fill="#21365F"/>
<path d="M51.0697 34.1275C53.9724 34.1275 56.3255 31.7744 56.3255 28.8717C56.3255 25.969 53.9724 23.6158 51.0697 23.6158C48.167 23.6158 45.8139 25.969 45.8139 28.8717C45.8139 31.7744 48.167 34.1275 51.0697 34.1275Z" fill="white"/>
<path d="M54.5385 24.9478C54.5561 25.0879 54.5736 25.2281 54.5736 25.3682C54.5736 28.2764 52.226 30.624 49.3178 30.624C47.9863 30.624 46.7775 30.116 45.8489 29.2926C46.0592 31.9905 48.3016 34.1279 51.0697 34.1279C53.9779 34.1279 56.3255 31.7803 56.3255 28.8721C56.3255 27.2953 55.6247 25.9113 54.5385 24.9478Z" fill="#BDC3D8"/>
<path d="M51.0697 35.4414C47.4432 35.4414 44.4999 32.4981 44.4999 28.8716C44.4999 25.2451 47.4432 22.3019 51.0697 22.3019C54.6962 22.3019 57.6395 25.2451 57.6395 28.8716C57.6395 32.4981 54.6962 35.4414 51.0697 35.4414ZM51.0697 24.9298C48.8973 24.9298 47.1278 26.6992 47.1278 28.8716C47.1278 31.044 48.8973 32.8135 51.0697 32.8135C53.2421 32.8135 55.0116 31.044 55.0116 28.8716C55.0116 26.6992 53.2421 24.9298 51.0697 24.9298Z" fill="#21365F"/>
<path d="M30.6596 54.9582H23.6519C22.9336 54.9582 22.338 54.3626 22.338 53.6443C22.338 52.926 22.9336 52.3303 23.6519 52.3303H30.6596C31.3779 52.3303 31.9736 52.926 31.9736 53.6443C31.9736 54.3626 31.3779 54.9582 30.6596 54.9582Z" fill="#21365F"/>
<path d="M27.1558 58.4621C26.4375 58.4621 25.8418 57.8664 25.8418 57.1481V50.1404C25.8418 49.4221 26.4375 48.8264 27.1558 48.8264C27.8741 48.8264 28.4697 49.4221 28.4697 50.1404V57.1481C28.4697 57.8664 27.8741 58.4621 27.1558 58.4621Z" fill="#21365F"/>
<path d="M21.2868 24.9298H14.279C13.5607 24.9298 12.9651 24.3341 12.9651 23.6158C12.9651 22.8975 13.5607 22.3019 14.279 22.3019H21.2868C22.0051 22.3019 22.6007 22.8975 22.6007 23.6158C22.6007 24.3516 22.0226 24.9298 21.2868 24.9298Z" fill="#21365F"/>
<path d="M17.7829 28.4336C17.0646 28.4336 16.469 27.838 16.469 27.1197V20.1119C16.469 19.3936 17.0646 18.798 17.7829 18.798C18.5012 18.798 19.0969 19.3936 19.0969 20.1119V27.1197C19.0969 27.8555 18.5187 28.4336 17.7829 28.4336Z" fill="#21365F"/>
<path d="M107.482 66.8009H100.474C99.756 66.8009 99.1603 66.2052 99.1603 65.4869C99.1603 64.7686 99.756 64.173 100.474 64.173H107.482C108.2 64.173 108.796 64.7686 108.796 65.4869C108.796 66.2052 108.2 66.8009 107.482 66.8009Z" fill="#21365F"/>
<path d="M103.978 70.3047C103.26 70.3047 102.664 69.7091 102.664 68.9908V61.983C102.664 61.2647 103.26 60.6691 103.978 60.6691C104.696 60.6691 105.292 61.2647 105.292 61.983V68.9908C105.292 69.7091 104.696 70.3047 103.978 70.3047Z" fill="#21365F"/>
<path d="M96.9704 38.7699H89.9627C89.2444 38.7699 88.6487 38.1742 88.6487 37.4559C88.6487 36.7376 89.2444 36.142 89.9627 36.142H96.9704C97.6887 36.142 98.2844 36.7376 98.2844 37.4559C98.2844 38.1742 97.6887 38.7699 96.9704 38.7699Z" fill="#21365F"/>
<path d="M93.4665 42.2738C92.7482 42.2738 92.1526 41.6957 92.1526 40.9599V33.9521C92.1526 33.2338 92.7482 32.6382 93.4665 32.6382C94.1848 32.6382 94.7805 33.2338 94.7805 33.9521V40.9599C94.7805 41.6782 94.1848 42.2738 93.4665 42.2738Z" fill="#21365F"/>
<path d="M58.095 76.875L39.4894 69.4468L50.5091 84.8463L58.095 76.875Z" fill="white"/>
<path opacity="0.5" d="M58.095 76.875L39.4894 69.4468L42.8006 74.0719L51.7004 77.6283C52.2785 77.8561 52.4362 78.5919 52.0158 79.0474L48.7922 82.4286L50.5091 84.8288L58.095 76.875Z" fill="#0091D7"/>
<path d="M50.5091 86.1602C50.474 86.1602 50.4565 86.1602 50.4215 86.1602C50.0361 86.1251 49.6682 85.9324 49.4404 85.6171L38.4207 70.2351C38.0879 69.7621 38.0879 69.1138 38.4558 68.6583C38.8237 68.2028 39.4369 68.0276 39.98 68.2554L58.5855 75.6836C58.9885 75.8413 59.2863 76.1917 59.3914 76.6296C59.479 77.0501 59.3564 77.5056 59.0585 77.821L51.4727 85.7923C51.2099 86.0025 50.877 86.1602 50.5091 86.1602ZM43.1685 72.3374L50.6492 82.7789L55.7999 77.3655L43.1685 72.3374Z" fill="#21365F"/>
<path d="M58.0949 76.875L76.683 69.4468L65.6633 84.8463L58.0949 76.875Z" fill="white"/>
<path opacity="0.5" d="M76.683 69.4468L71.217 71.6367L63.3858 82.4461L65.6633 84.8463L76.683 69.4468Z" fill="#0091D7"/>
<path d="M65.6633 86.1602C65.313 86.1602 64.9626 86.02 64.7173 85.7572L57.1489 77.7859C56.8511 77.4706 56.7285 77.0326 56.8161 76.5946C56.9037 76.1741 57.2015 75.8238 57.6044 75.6486L76.1925 68.2203C76.7356 68.0101 77.3487 68.1678 77.7167 68.6233C78.0846 69.0788 78.0846 69.727 77.7517 70.2L66.732 85.582C66.5043 85.8974 66.1539 86.0901 65.7509 86.1251C65.7334 86.1602 65.6984 86.1602 65.6633 86.1602ZM60.39 77.383L65.5232 82.7965L73.004 72.3549L60.39 77.383Z" fill="#21365F"/>
<path d="M39.4894 69.4468L30.8874 84.4083L45.8139 113.438L39.4894 69.4468Z" fill="white"/>
<path opacity="0.5" d="M39.4894 69.4468L30.8874 84.3908L32.6744 87.8771L36.4761 81.2723C36.8965 80.5541 37.9827 80.7643 38.1054 81.5877L41.4691 104.959L45.8139 113.438L39.4894 69.4468Z" fill="#0091D7"/>
<path d="M45.8139 114.751C45.3409 114.751 44.8679 114.489 44.6401 114.033L29.6961 85.0036C29.4858 84.6006 29.5034 84.1276 29.7311 83.7422L38.3331 68.7806C38.6134 68.2901 39.1741 68.0273 39.7172 68.1499C40.2603 68.255 40.6982 68.693 40.7683 69.2537L47.0928 113.245C47.1804 113.875 46.795 114.489 46.1993 114.681C46.0942 114.734 45.9541 114.751 45.8139 114.751ZM32.3765 84.4429L43.3962 105.869L38.7186 73.4057L32.3765 84.4429Z" fill="#21365F"/>
<path opacity="0.5" d="M76.683 69.4468L85.3201 84.4083L70.341 113.438L76.683 69.4468Z" fill="white"/>
<path opacity="0.5" d="M85.3201 84.4079L76.683 69.4639L75.8771 75.035L80.8176 83.5845C81.1154 84.0925 81.1329 84.7408 80.8526 85.2663L71.9002 102.646L70.341 113.437L85.3201 84.4079Z" fill="#0091D7"/>
<path d="M70.341 114.751C70.2009 114.751 70.0782 114.734 69.9381 114.681C69.3249 114.489 68.9395 113.876 69.0446 113.245L75.3691 69.2537C75.4567 68.6931 75.8771 68.2551 76.4202 68.15C76.9633 68.0449 77.5239 68.2902 77.8043 68.7807L86.4413 83.7247C86.6691 84.1101 86.6691 84.5832 86.4763 84.9861L71.4973 114.016C71.2871 114.489 70.8316 114.751 70.341 114.751ZM77.4363 73.3883L72.7587 105.887L83.8309 84.4255L77.4363 73.3883Z" fill="#21365F"/>
</svg>
