<svg width="137" height="137" viewBox="0 0 137 137" fill="none" xmlns="http://www.w3.org/2000/svg">
<path d="M35.4479 62.5122C56.8534 54.9989 80.3588 55.4279 101.466 63.7065C110.257 67.1663 118.626 71.9966 126.26 78.1709C127.833 76.6543 129.47 75.0763 130.915 73.6826C133.349 71.3361 133.348 67.3998 130.852 65.1303C95.7692 33.146 42.2871 32.17 6.05029 62.8423C3.46276 65.0294 3.32813 68.9737 5.68496 71.4182L10.1527 76.052C18.0075 70.1604 26.5366 65.6489 35.4479 62.5122Z" fill="white"/>
<path opacity="0.5" d="M35.4479 62.5125C56.8534 54.9993 80.3588 55.4282 101.466 63.7068C110.257 67.1666 118.626 71.997 126.26 78.1712C127.833 76.6546 129.47 75.0766 130.915 73.683C130.905 73.6932 130.894 73.7035 130.883 73.7137C122.662 67.0589 113.632 61.8407 104.146 58.128C81.3809 49.1927 56.0385 48.7302 32.9725 56.8396C23.3678 60.2143 14.1638 65.0893 5.70547 71.4398L10.1527 76.0523C18.0075 70.1608 26.5366 65.6493 35.4479 62.5125Z" fill="#0091D7"/>
<path d="M4.99517 62.3015C5.10144 62.199 5.21836 62.0863 5.33489 61.9945C41.911 31.036 96.1864 32.0265 131.598 64.3091C133.005 65.5982 133.808 67.3669 133.835 69.3094C133.862 71.252 133.076 73.1379 131.684 74.4803L127.029 78.9685C126.625 79.3579 125.998 79.3882 125.566 79.0253C118.127 73.0112 109.883 68.2041 101.071 64.7439C80.1818 56.5424 57.0104 56.1195 35.8254 63.5637C26.8933 66.7 18.4792 71.2032 10.8256 76.9418C10.3705 77.2781 9.74496 77.2249 9.36582 76.8317L4.88784 72.1872C3.53522 70.7843 2.81839 68.8709 2.91644 66.9307C3.00121 65.1468 3.74105 63.5107 4.99517 62.3015ZM130.147 72.886C131.103 71.9638 131.639 70.6684 131.621 69.3317C131.614 68.0264 131.072 66.8262 130.106 65.9525C95.5163 34.4157 42.4832 33.4375 6.76567 63.6911C5.77917 64.5397 5.19382 65.7193 5.12807 67.0337C5.06194 68.369 5.54957 69.683 6.48205 70.6501L10.2837 74.5931C17.9035 68.9896 26.2429 64.5791 35.0907 61.4829C56.7695 53.8703 80.4837 54.303 101.881 62.6914C110.599 66.1185 118.783 70.8202 126.203 76.7086L130.157 72.8967L130.147 72.886Z" fill="#21365F"/>
<path d="M97.5647 67.4885C95.4497 69.5276 96.2416 73.0503 99.0111 74.0509C104.82 76.1616 110.45 78.8538 115.83 82.1365C118.112 83.525 121.042 83.2026 122.976 81.3376C123.964 80.3846 125.091 79.2984 126.26 78.1713C118.626 71.997 110.256 67.1667 101.466 63.7069C100.254 64.8959 98.957 66.1461 97.5647 67.4885Z" fill="white"/>
<path opacity="0.5" d="M99.0112 74.0509C104.82 76.1616 110.45 78.8537 115.83 82.1364C118.112 83.525 121.042 83.2026 122.976 81.3376C123.072 81.2454 123.178 81.1429 123.263 81.0609C123.087 80.9846 122.911 80.9083 122.746 80.8009C116.385 76.926 109.654 73.8588 102.72 71.6232C101.402 71.1919 100.984 69.5242 101.983 68.5609L105.32 65.3434C104.046 64.7667 102.761 64.2212 101.465 63.7277C100.243 64.9062 98.9464 66.1563 97.5541 67.4987C95.4498 69.5276 96.2314 73.0396 99.0112 74.0509Z" fill="#0091D7"/>
<path d="M96.7964 66.6913L100.708 62.9204C101.016 62.6232 101.477 62.5272 101.881 62.6912C110.911 66.2284 119.351 71.154 126.965 77.307C127.212 77.4995 127.363 77.805 127.378 78.1185C127.394 78.432 127.263 78.7429 127.039 78.9581L123.755 82.1244C121.47 84.3275 117.976 84.7232 115.271 83.0659C110.014 79.869 104.425 77.1776 98.648 75.0779C96.978 74.4732 95.7507 73.0726 95.3857 71.3327C94.9884 69.6444 95.5317 67.9107 96.7964 66.6913ZM101.724 65.0167L98.3335 68.2855C97.6214 68.9721 97.3325 69.9274 97.5237 70.8914C97.7354 71.8767 98.4311 72.6621 99.375 73.003C105.298 75.1471 111.032 77.9037 116.401 81.1758C118.25 82.3058 120.635 82.0361 122.197 80.5298L124.568 78.2447C117.589 72.7507 109.902 68.2878 101.724 65.0167Z" fill="#21365F"/>
<path d="M30.4738 64.4578C23.3617 67.4186 16.5356 71.2929 10.163 76.0631L13.3191 79.3365C15.1841 81.2708 18.1207 81.7003 20.4626 80.3857C25.9795 77.3018 31.7256 74.8173 37.6179 72.9097C40.3905 72.0206 41.2376 68.5175 39.2189 66.4237L35.4582 62.5232C26.5469 65.66 18.0178 70.1715 10.163 76.0631C16.536 71.2721 23.3617 67.4186 30.4738 64.4578Z" fill="white"/>
<path opacity="0.5" d="M20.4628 80.3857C25.9797 77.3019 31.7259 74.8174 37.6181 72.9098C40.0757 72.1193 41.0047 69.2754 39.7793 67.1962C39.4726 67.4099 39.1351 67.5916 38.7571 67.71C32.2561 69.7944 25.9296 72.6129 19.8926 76.1571C18.5839 76.9268 16.9378 76.7297 15.8926 75.6456L13.8022 73.4775C13.4321 73.7318 13.0411 73.9856 12.6711 74.2399C12.3116 74.4839 11.962 74.7595 11.6026 75.0035C11.116 75.3496 10.6294 75.6957 10.1424 76.0627L13.2985 79.3361C15.1843 81.2708 18.1106 81.6897 20.4628 80.3857Z" fill="#0091D7"/>
<path d="M9.38434 75.2553C9.41623 75.2245 9.44811 75.1938 9.49024 75.1737C17.3238 69.3026 25.9383 64.6882 35.0807 61.4722C35.4906 61.3231 35.948 61.4358 36.2451 61.744L40.0058 65.6445C41.2252 66.9092 41.7045 68.6825 41.266 70.3973C40.8385 72.0809 39.603 73.4157 37.9436 73.9493C32.0726 75.8364 26.3682 78.3216 20.9882 81.3349C18.2034 82.892 14.715 82.3794 12.5119 80.0943L9.35577 76.8209C9.35577 76.8209 9.35577 76.8209 9.34553 76.8103C9.13034 76.5871 9.0108 76.2717 9.03739 75.9589C9.07346 75.6986 9.19304 75.4397 9.38434 75.2553ZM31.1047 65.3672C31.0413 65.4078 30.9779 65.4484 30.9043 65.4784C24.1603 68.2893 17.7464 71.8892 11.8312 76.1979L14.1163 78.5679C15.6227 80.1302 18.0176 80.4872 19.9165 79.4151C25.4126 76.3308 31.2536 73.7959 37.2719 71.8488C38.2067 71.5422 38.8881 70.8238 39.125 69.8571C39.3619 68.8904 39.0982 67.8937 38.4116 67.1816L35.1428 63.7912C33.7973 64.2887 32.4407 64.8173 31.1047 65.3672Z" fill="#21365F"/>
<path d="M82.9471 92.6592H80.895C80.2897 92.6592 79.7877 92.1573 79.7877 91.552C79.7877 90.9467 80.2897 90.4447 80.895 90.4447H82.9323C83.5376 90.4447 84.0396 90.9467 84.0396 91.552C84.0543 92.1573 83.5524 92.6592 82.9471 92.6592Z" fill="#21365F"/>
<path d="M89.753 92.6592H87.7157C87.1104 92.6592 86.6084 92.1573 86.6084 91.552C86.6084 90.9467 87.1104 90.4447 87.7157 90.4447H89.753C90.3583 90.4447 90.8603 90.9467 90.8603 91.552C90.8603 92.1573 90.3731 92.6592 89.753 92.6592Z" fill="#21365F"/>
<path d="M85.3239 97.0877C84.7186 97.0877 84.2167 96.5857 84.2167 95.9804V93.9431C84.2167 93.3378 84.7186 92.8358 85.3239 92.8358C85.9292 92.8358 86.4312 93.3378 86.4312 93.9431V95.9804C86.4312 96.5857 85.944 97.0877 85.3239 97.0877Z" fill="#21365F"/>
<path d="M85.3239 90.2674C84.7186 90.2674 84.2167 89.7654 84.2167 89.1601V87.1228C84.2167 86.5175 84.7186 86.0155 85.3239 86.0155C85.9292 86.0155 86.4312 86.5175 86.4312 87.1228V89.1601C86.4312 89.7802 85.944 90.2674 85.3239 90.2674Z" fill="#21365F"/>
<path d="M63.3613 82.6587H61.324C60.7187 82.6587 60.2167 82.1568 60.2167 81.5515C60.2167 80.9462 60.7187 80.4442 61.324 80.4442H63.3613C63.9666 80.4442 64.4686 80.9462 64.4686 81.5515C64.4686 82.1568 63.9814 82.6587 63.3613 82.6587Z" fill="#21365F"/>
<path d="M63.3613 107.659H61.324C60.7187 107.659 60.2167 107.157 60.2167 106.551C60.2167 105.946 60.7187 105.444 61.324 105.444H63.3613C63.9666 105.444 64.4686 105.946 64.4686 106.551C64.4686 107.157 63.9814 107.659 63.3613 107.659Z" fill="#21365F"/>
<path d="M70.182 82.6587H68.1446C67.5393 82.6587 67.0374 82.1568 67.0374 81.5515C67.0374 80.9462 67.5393 80.4442 68.1446 80.4442H70.182C70.7873 80.4442 71.2892 80.9462 71.2892 81.5515C71.2892 82.1568 70.7873 82.6587 70.182 82.6587Z" fill="#21365F"/>
<path d="M70.182 107.659H68.1446C67.5393 107.659 67.0374 107.157 67.0374 106.551C67.0374 105.946 67.5393 105.444 68.1446 105.444H70.182C70.7873 105.444 71.2892 105.946 71.2892 106.551C71.2892 107.157 70.7873 107.659 70.182 107.659Z" fill="#21365F"/>
<path d="M65.753 87.0877C65.1477 87.0877 64.6458 86.5857 64.6458 85.9804V83.9431C64.6458 83.3378 65.1477 82.8358 65.753 82.8358C66.3583 82.8358 66.8603 83.3378 66.8603 83.9431V85.9804C66.8603 86.5857 66.3583 87.0877 65.753 87.0877Z" fill="#21365F"/>
<path d="M65.753 112.088C65.1477 112.088 64.6458 111.586 64.6458 110.98V108.943C64.6458 108.338 65.1477 107.836 65.753 107.836C66.3583 107.836 66.8603 108.338 66.8603 108.943V110.98C66.8603 111.586 66.3583 112.088 65.753 112.088Z" fill="#21365F"/>
<path d="M65.753 80.2674C65.1477 80.2674 64.6458 79.7654 64.6458 79.1601V77.1228C64.6458 76.5175 65.1477 76.0155 65.753 76.0155C66.3583 76.0155 66.8603 76.5175 66.8603 77.1228V79.1601C66.8603 79.7654 66.3583 80.2674 65.753 80.2674Z" fill="#21365F"/>
<path d="M65.753 105.267C65.1477 105.267 64.6458 104.765 64.6458 104.16V102.123C64.6458 101.517 65.1477 101.016 65.753 101.016C66.3583 101.016 66.8603 101.517 66.8603 102.123V104.16C66.8603 104.765 66.3583 105.267 65.753 105.267Z" fill="#21365F"/>
<path d="M44.9324 95.6587H42.895C42.2897 95.6587 41.7878 95.1568 41.7878 94.5515C41.7878 93.9462 42.2897 93.4442 42.895 93.4442H44.9324C45.5377 93.4442 46.0396 93.9462 46.0396 94.5515C46.0396 95.1568 45.5524 95.6587 44.9324 95.6587Z" fill="#21365F"/>
<path d="M51.753 95.6587H49.7157C49.1104 95.6587 48.6084 95.1568 48.6084 94.5515C48.6084 93.9462 49.1104 93.4442 49.7157 93.4442H51.753C52.3583 93.4442 52.8603 93.9462 52.8603 94.5515C52.8603 95.1568 52.3583 95.6587 51.753 95.6587Z" fill="#21365F"/>
<path d="M47.324 100.088C46.7187 100.088 46.2167 99.5857 46.2167 98.9804V96.9431C46.2167 96.3378 46.7187 95.8358 47.324 95.8358C47.9293 95.8358 48.4312 96.3378 48.4312 96.9431V98.9804C48.4312 99.5857 47.9293 100.088 47.324 100.088Z" fill="#21365F"/>
<path d="M47.324 93.2674C46.7187 93.2674 46.2167 92.7654 46.2167 92.1601V90.1228C46.2167 89.5175 46.7187 89.0155 47.324 89.0155C47.9293 89.0155 48.4312 89.5175 48.4312 90.1228V92.1601C48.4312 92.7802 47.9293 93.2674 47.324 93.2674Z" fill="#21365F"/>
</svg>
