<svg width="109" height="95" viewBox="0 0 109 95" fill="none" xmlns="http://www.w3.org/2000/svg">
<path opacity="0.5" d="M97.8827 29.9384H11.3138C9.72666 29.9384 8.42813 31.2369 8.42813 32.824V90.5366C8.42813 92.1237 9.72666 93.4222 11.3138 93.4222H97.8827C99.4698 93.4222 100.768 92.1237 100.768 90.5366V32.824C100.768 31.2369 99.4698 29.9384 97.8827 29.9384Z" fill="#0091D7"/>
<path d="M93.5542 29.9384H11.3138C9.72666 29.9384 8.42813 31.2369 8.42813 32.824V90.5366C8.42813 92.1237 9.72666 93.4222 11.3138 93.4222H93.5542V29.9384Z" fill="white"/>
<path d="M97.8827 94.5044H11.3138C9.12069 94.5044 7.34602 92.7298 7.34602 90.5367V32.8241C7.34602 30.631 9.12069 28.8563 11.3138 28.8563H97.8827C100.076 28.8563 101.85 30.631 101.85 32.8241V90.5367C101.85 92.7298 100.076 94.5044 97.8827 94.5044ZM11.3138 31.0205C10.3182 31.0205 9.51025 31.8285 9.51025 32.8241V90.5367C9.51025 91.5322 10.3182 92.3402 11.3138 92.3402H97.8827C98.8782 92.3402 99.6862 91.5322 99.6862 90.5367V32.8241C99.6862 31.8285 98.8782 31.0205 97.8827 31.0205H11.3138Z" fill="#21365F"/>
<path opacity="0.5" d="M86.3402 1.08203H22.8563C21.2548 1.08203 19.9707 2.38056 19.9707 3.96766V93.4222H89.2258V3.96766C89.2258 2.38056 87.9273 1.08203 86.3402 1.08203Z" fill="#0091D7"/>
<path d="M84.8974 1.08203H22.8563C21.2548 1.08203 19.9707 2.38056 19.9707 3.96766V93.4222H84.8974V1.08203Z" fill="white"/>
<path d="M89.2258 94.5044H19.9707C19.3791 94.5044 18.8885 94.0138 18.8885 93.4223V3.96774C18.8885 1.77466 20.6632 0 22.8563 0H86.3402C88.5332 0 90.3079 1.77466 90.3079 3.96774V93.4223C90.3079 94.0138 89.8174 94.5044 89.2258 94.5044ZM21.0528 92.3402H88.1437V3.96774C88.1437 2.9722 87.3357 2.16422 86.3402 2.16422H22.8563C21.8607 2.16422 21.0528 2.9722 21.0528 3.96774V92.3402Z" fill="#21365F"/>
<path d="M82.0117 16.5924H77.6833C77.0917 16.5924 76.6012 16.1019 76.6012 15.5103C76.6012 14.9188 77.0917 14.4282 77.6833 14.4282H82.0117C82.6033 14.4282 83.0938 14.9188 83.0938 15.5103C83.0938 16.1019 82.6033 16.5924 82.0117 16.5924Z" fill="#21365F"/>
<path d="M71.912 16.5924H63.2551C62.6636 16.5924 62.173 16.1019 62.173 15.5103C62.173 14.9188 62.6636 14.4282 63.2551 14.4282H71.912C72.5036 14.4282 72.9941 14.9188 72.9941 15.5103C72.9941 16.1019 72.5036 16.5924 71.912 16.5924Z" fill="#21365F"/>
<path d="M82.0117 23.8064H63.2551C62.6636 23.8064 62.173 23.3159 62.173 22.7243C62.173 22.1328 62.6636 21.6422 63.2551 21.6422H82.0117C82.6033 21.6422 83.0938 22.1328 83.0938 22.7243C83.0938 23.3303 82.6033 23.8064 82.0117 23.8064Z" fill="#21365F"/>
<path d="M76.9619 31.0205H63.2551C62.6636 31.0205 62.173 30.53 62.173 29.9384C62.173 29.3469 62.6636 28.8563 63.2551 28.8563H76.9619C77.5534 28.8563 78.044 29.3469 78.044 29.9384C78.044 30.5444 77.5534 31.0205 76.9619 31.0205Z" fill="#21365F"/>
<path d="M82.0117 38.2345H74.7976C74.2061 38.2345 73.7155 37.744 73.7155 37.1524C73.7155 36.5609 74.2061 36.0703 74.7976 36.0703H82.0117C82.6033 36.0703 83.0938 36.5609 83.0938 37.1524C83.0938 37.7584 82.6033 38.2345 82.0117 38.2345Z" fill="#21365F"/>
<path d="M69.0264 38.2345H63.2551C62.6636 38.2345 62.173 37.744 62.173 37.1524C62.173 36.5609 62.6636 36.0703 63.2551 36.0703H69.0264C69.6179 36.0703 70.1085 36.5609 70.1085 37.1524C70.1085 37.7584 69.6179 38.2345 69.0264 38.2345Z" fill="#21365F"/>
<path d="M82.0117 45.4486H69.0264C68.4348 45.4486 67.9443 44.9581 67.9443 44.3665C67.9443 43.775 68.4348 43.2844 69.0264 43.2844H82.0117C82.6033 43.2844 83.0938 43.775 83.0938 44.3665C83.0938 44.9581 82.6033 45.4486 82.0117 45.4486Z" fill="#21365F"/>
<path d="M63.2551 45.4486H50.2698C49.6783 45.4486 49.1877 44.9581 49.1877 44.3665C49.1877 43.775 49.6638 43.2844 50.2698 43.2844H63.2551C63.8467 43.2844 64.3373 43.775 64.3373 44.3665C64.3373 44.9581 63.8467 45.4486 63.2551 45.4486Z" fill="#21365F"/>
<path d="M52.7226 27.6878L47.5862 26.3315H41.6129H35.6397L30.5032 27.6878C28.5554 28.2072 27.1848 29.9674 27.1848 31.9874V37.1671H56.0411V31.9874C56.0411 29.9674 54.6848 28.1928 52.7226 27.6878Z" fill="white"/>
<path opacity="0.5" d="M52.7226 27.6877L51.6838 27.4136C51.6838 27.5001 51.6982 27.5723 51.6982 27.6444C51.6982 30.5878 49.4763 33.0406 46.5473 33.3291L27.1848 35.2769V37.1526H56.0411V31.9729C56.0411 29.9674 54.6848 28.1927 52.7226 27.6877Z" fill="#0091D7"/>
<path d="M56.041 38.2348H27.1847C26.5932 38.2348 26.1026 37.7443 26.1026 37.1527V31.973C26.1026 29.4625 27.7907 27.2695 30.2291 26.6346L35.3655 25.2784C35.452 25.2495 35.553 25.2495 35.6396 25.2495H47.5861C47.6727 25.2495 47.7737 25.2639 47.8603 25.2784L52.9967 26.6346C55.4206 27.2695 57.1087 29.4625 57.1087 31.973V37.1527C57.1231 37.7443 56.6326 38.2348 56.041 38.2348ZM28.2668 36.0706H54.9589V31.973C54.9589 30.4436 53.9345 29.1163 52.4484 28.7267L47.4418 27.4137H35.7695L30.7629 28.7267C29.2912 29.1163 28.2524 30.4436 28.2524 31.973V36.0706H28.2668Z" fill="#21365F"/>
<path d="M46.0134 28.4961C46.8936 27.8757 47.5717 27.1399 47.5861 26.3463C46.3309 25.6971 45.3786 24.5284 45.1189 23.1144C45.0756 22.9124 45.0468 21.5995 45.0323 21.3975H38.1934C38.1645 21.6283 38.1357 22.9701 38.078 23.2154C37.8038 24.6005 36.8804 25.7403 35.6396 26.3463C35.654 27.1543 36.3322 27.8757 37.2123 28.4961C39.8382 30.3141 43.4019 30.3141 46.0134 28.4961Z" fill="white"/>
<path opacity="0.5" d="M45.2776 28.929C45.5229 28.7991 45.7826 28.6693 46.0135 28.4961C46.8936 27.8757 47.5717 27.1399 47.5861 26.3463C46.3309 25.6971 45.3786 24.5284 45.1189 23.1144C45.0756 22.9124 45.0468 21.5995 45.0323 21.3975H42.2189C42.2621 22.2199 42.3054 23.7637 42.3631 24.0667C42.7238 26 43.7915 27.7026 45.2776 28.929Z" fill="#0091D7"/>
<path d="M41.6129 30.9485C39.8527 30.9485 38.0924 30.4291 36.5919 29.3758C35.2645 28.4524 34.572 27.428 34.5575 26.3603C34.5431 25.9419 34.7884 25.5524 35.1635 25.3648C36.1446 24.8887 36.8228 24.023 37.0248 22.9986C37.0392 22.8543 37.068 22.407 37.0825 22.0175C37.0969 21.6712 37.1113 21.3682 37.1258 21.2672C37.1835 20.7189 37.6452 20.3149 38.1934 20.3149H45.0324C45.5807 20.3149 46.0424 20.7334 46.1145 21.2672C46.1289 21.3538 46.1434 21.6568 46.1578 22.003C46.1722 22.3637 46.1866 22.7966 46.2011 22.9409C46.3886 23.9508 47.0956 24.8742 48.0912 25.3792C48.4519 25.5668 48.6827 25.9419 48.6827 26.3603C48.6683 27.4424 47.9902 28.4524 46.6483 29.3903C45.1334 30.4291 43.3732 30.9485 41.6129 30.9485ZM36.9526 26.8076C37.1113 27.0096 37.3855 27.2837 37.8327 27.6012C40.098 29.1883 43.1423 29.1883 45.3931 27.6012C45.8548 27.2837 46.1289 27.0096 46.2876 26.7932C45.1334 25.9419 44.311 24.6867 44.0513 23.2871C44.0368 23.1861 44.008 22.8254 43.9936 22.4503H39.2178C39.189 22.8687 39.1746 23.2583 39.1457 23.3881C38.8716 24.7877 38.0924 25.9852 36.9526 26.8076Z" fill="#21365F"/>
<path d="M48.5528 15.5102C48.5528 10.9076 45.4508 8.29614 41.6129 8.29614C37.775 8.29614 34.673 10.9076 34.673 15.5102C34.673 20.1128 37.775 23.8353 41.6129 23.8353C45.4364 23.8353 48.5528 20.1128 48.5528 15.5102Z" fill="white"/>
<path opacity="0.5" d="M47.0812 10.8644C47.0812 10.9798 47.11 11.0664 47.11 11.1818C47.11 15.7844 44.008 19.5068 40.1701 19.5068C37.9481 19.5068 35.9859 18.2516 34.7162 16.3038C35.0481 20.5312 38.0059 23.8353 41.6129 23.8353C45.4364 23.8353 48.5528 20.1128 48.5528 15.5102C48.5528 13.5913 47.9901 12.0475 47.0812 10.8644Z" fill="#0091D7"/>
<path d="M41.6129 24.9175C37.1979 24.9175 33.5909 20.7044 33.5909 15.5103C33.5909 10.6192 36.8949 7.21411 41.6129 7.21411C46.3309 7.21411 49.635 10.6192 49.635 15.5103C49.635 20.69 46.0279 24.9175 41.6129 24.9175ZM41.6129 9.37833C38.0492 9.37833 35.7551 11.7878 35.7551 15.5103C35.7551 19.5069 38.381 22.7532 41.6129 22.7532C44.8448 22.7532 47.4708 19.5069 47.4708 15.5103C47.4708 11.7878 45.1622 9.37833 41.6129 9.37833Z" fill="#21365F"/>
<path opacity="0.5" d="M8.42813 90.537V47.2526C8.42813 45.6655 9.72666 44.3669 11.3138 44.3669H39.6651C41.0213 44.3669 42.3054 45.0018 43.1278 46.0983L49.1877 54.1781C50.0101 55.2746 51.2942 55.9095 52.6504 55.9095H97.8827C99.4698 55.9095 100.768 57.208 100.768 58.7951V90.537C100.768 92.1241 99.4698 93.4227 97.8827 93.4227H11.3138C9.71224 93.4227 8.42813 92.1241 8.42813 90.537Z" fill="#0091D7"/>
<path d="M8.42813 89.0942V47.2526C8.42813 45.6655 9.72666 44.3669 11.3138 44.3669H39.6651C41.0213 44.3669 42.3054 45.0018 43.1278 46.0983L49.1877 54.1781C50.0101 55.2746 51.2942 55.9095 52.6504 55.9095H96.4399V86.2086C96.4399 87.7957 95.1413 89.0942 93.5542 89.0942H8.42813Z" fill="white"/>
<path d="M97.8827 94.5044H11.3138C9.12069 94.5044 7.34602 92.7297 7.34602 90.5366V47.2522C7.34602 45.0735 9.12069 43.2844 11.3138 43.2844H39.6651C41.3532 43.2844 42.9836 44.0924 43.9935 45.4486L50.0534 53.5284C50.6593 54.3364 51.6405 54.8269 52.6504 54.8269H97.8827C100.076 54.8269 101.85 56.6016 101.85 58.7947V90.5366C101.85 92.7297 100.076 94.5044 97.8827 94.5044ZM11.3138 45.4486C10.3182 45.4486 9.51025 46.2566 9.51025 47.2522V90.5366C9.51025 91.5322 10.3182 92.3401 11.3138 92.3401H97.8827C98.8782 92.3401 99.6862 91.5322 99.6862 90.5366V58.7947C99.6862 57.7991 98.8782 56.9912 97.8827 56.9912H52.6504C50.9623 56.9912 49.332 56.1832 48.322 54.8269L42.2622 46.7472C41.6562 45.9392 40.6751 45.4486 39.6651 45.4486H11.3138Z" fill="#21365F"/>
<path opacity="0.5" d="M92.1115 63.1232H60.3695C59.576 63.1232 58.9267 63.7724 58.9267 64.566V84.7654C58.9267 85.5589 59.576 86.2082 60.3695 86.2082H92.1115C92.905 86.2082 93.5543 85.5589 93.5543 84.7654V64.566C93.5543 63.7724 92.905 63.1232 92.1115 63.1232Z" fill="#0091D7"/>
<path d="M87.783 63.1232H60.3695C59.576 63.1232 58.9267 63.7724 58.9267 64.566V80.437C58.9267 81.2305 59.576 81.8798 60.3695 81.8798H87.783C88.5766 81.8798 89.2258 81.2305 89.2258 80.437V64.566C89.2258 63.7724 88.5766 63.1232 87.783 63.1232Z" fill="white"/>
<path d="M92.1115 87.2904H60.3695C58.9844 87.2904 57.8446 86.1506 57.8446 84.7655V64.5661C57.8446 63.181 58.9844 62.0411 60.3695 62.0411H92.1115C93.4966 62.0411 94.6364 63.181 94.6364 64.5661V84.7655C94.6364 86.165 93.4966 87.2904 92.1115 87.2904ZM60.3695 64.2054C60.1675 64.2054 60.0088 64.3641 60.0088 64.5661V84.7655C60.0088 84.9675 60.1675 85.1262 60.3695 85.1262H92.1115C92.3135 85.1262 92.4722 84.9675 92.4722 84.7655V64.5661C92.4722 64.3641 92.3135 64.2054 92.1115 64.2054H60.3695Z" fill="#21365F"/>
<path d="M86.3402 72.1408H79.1261C78.5345 72.1408 78.044 71.6502 78.044 71.0587C78.044 70.4671 78.5345 69.9766 79.1261 69.9766H86.3402C86.9317 69.9766 87.4223 70.4671 87.4223 71.0587C87.4223 71.6502 86.9317 72.1408 86.3402 72.1408Z" fill="#21365F"/>
<path d="M73.3549 72.1408H66.1408C65.5492 72.1408 65.0587 71.6502 65.0587 71.0587C65.0587 70.4671 65.5492 69.9766 66.1408 69.9766H73.3549C73.9464 69.9766 74.437 70.4671 74.437 71.0587C74.437 71.6502 73.9464 72.1408 73.3549 72.1408Z" fill="#21365F"/>
<path d="M80.5689 79.3549H66.1408C65.5492 79.3549 65.0587 78.8643 65.0587 78.2728C65.0587 77.6812 65.5492 77.1907 66.1408 77.1907H80.5689C81.1605 77.1907 81.651 77.6812 81.651 78.2728C81.651 78.8643 81.1605 79.3549 80.5689 79.3549Z" fill="#21365F"/>
<path opacity="0.5" d="M31.5132 68.8948H17.0851C16.2915 68.8948 15.6423 68.2456 15.6423 67.452V53.0239C15.6423 52.2303 16.2915 51.5811 17.0851 51.5811H31.5132C32.3068 51.5811 32.956 52.2303 32.956 53.0239V67.452C32.956 68.2456 32.3068 68.8948 31.5132 68.8948Z" fill="#0091D7"/>
<path d="M27.1848 66.0092H15.6423V53.0239C15.6423 52.2303 16.2915 51.5811 17.0851 51.5811H30.0704V63.1236C30.0704 64.7251 28.7719 66.0092 27.1848 66.0092Z" fill="white"/>
<path d="M31.5132 69.9765H17.085C15.6999 69.9765 14.5601 68.8367 14.5601 67.4516V53.0235C14.5601 51.6384 15.6999 50.4985 17.085 50.4985H31.5132C32.8983 50.4985 34.0381 51.6384 34.0381 53.0235V67.4516C34.0381 68.8511 32.8983 69.9765 31.5132 69.9765ZM17.085 52.6628C16.883 52.6628 16.7243 52.8215 16.7243 53.0235V67.4516C16.7243 67.6536 16.883 67.8123 17.085 67.8123H31.5132C31.7152 67.8123 31.8739 67.6536 31.8739 67.4516V53.0235C31.8739 52.8215 31.7152 52.6628 31.5132 52.6628H17.085Z" fill="#21365F"/>
<path d="M27.9061 61.32H20.6921C20.1005 61.32 19.61 60.8294 19.61 60.2379C19.61 59.6463 20.1005 59.1558 20.6921 59.1558H27.9061C28.4977 59.1558 28.9883 59.6463 28.9883 60.2379C28.9883 60.8439 28.4977 61.32 27.9061 61.32Z" fill="#21365F"/>
<path d="M24.2991 64.9268C23.7076 64.9268 23.217 64.4362 23.217 63.8447V56.6306C23.217 56.039 23.7076 55.5485 24.2991 55.5485C24.8907 55.5485 25.3812 56.039 25.3812 56.6306V63.8447C25.3812 64.4506 24.8907 64.9268 24.2991 64.9268Z" fill="#21365F"/>
<path d="M1.93549 75.0264C1.34394 75.0264 0.853378 74.5359 0.853378 73.9443V46.8338C0.853378 46.2423 1.34394 45.7517 1.93549 45.7517C2.52704 45.7517 3.0176 46.2423 3.0176 46.8338V73.9443C3.0176 74.5359 2.52704 75.0264 1.93549 75.0264Z" fill="#21365F"/>
<path d="M1.93549 42.1446C1.34394 42.1446 0.853378 41.654 0.853378 41.0625V37.8739C0.853378 37.2823 1.34394 36.7917 1.93549 36.7917C2.52704 36.7917 3.0176 37.2823 3.0176 37.8739V41.0625C3.0176 41.6685 2.52704 42.1446 1.93549 42.1446Z" fill="#21365F"/>
<path d="M107.261 77.9127C106.669 77.9127 106.179 77.4221 106.179 76.8305V59.8342C106.179 59.2426 106.669 58.7521 107.261 58.7521C107.853 58.7521 108.343 59.2426 108.343 59.8342V76.845C108.343 77.4365 107.853 77.9127 107.261 77.9127Z" fill="#21365F"/>
<path d="M107.261 55.1445C106.669 55.1445 106.179 54.6539 106.179 54.0624V50.8737C106.179 50.2822 106.669 49.7916 107.261 49.7916C107.853 49.7916 108.343 50.2822 108.343 50.8737V54.0624C108.343 54.6539 107.853 55.1445 107.261 55.1445Z" fill="#21365F"/>
</svg>
