<svg width="88" height="88" viewBox="0 0 88 88" fill="none" xmlns="http://www.w3.org/2000/svg">
<path d="M81.5032 23.6694C81.5032 11.1575 71.8208 1.01917 59.8855 1.01917C51.96 1.01917 45.0402 5.51167 41.2718 12.1901C37.5035 5.51167 30.5971 1.01917 22.6581 1.01917C10.7228 1.01917 1.04045 11.1575 1.04045 23.6694C1.04045 50.3562 41.2718 76.1177 41.2718 76.1177C41.2718 76.1177 81.5032 50.3562 81.5032 23.6694Z" fill="white"/>
<path opacity="0.5" d="M59.8855 1.00586C56.2513 1.00586 52.845 1.98482 49.8277 3.66113C56.8011 8.63641 61.3875 17.0179 61.3875 26.526C61.3875 43.4097 48.1916 59.985 35.4785 72.0276C38.9652 74.6293 41.2852 76.1044 41.2852 76.1044C41.2852 76.1044 81.5166 50.3563 81.5166 23.6561C81.5032 11.1576 71.8208 1.00586 59.8855 1.00586Z" fill="#0091D7"/>
<path d="M41.2718 77.1101C41.0841 77.1101 40.8963 77.0565 40.7354 76.9492C39.0725 75.8898 0.034668 50.5976 0.034668 23.6695C0.034668 10.6211 10.1864 0.0134101 22.6581 0.0134101C30.0741 0.0134101 37.0609 3.90244 41.2718 10.259C45.4827 3.88903 52.4696 0 59.8855 0C72.3573 0 82.509 10.6211 82.509 23.6695C82.509 50.5976 43.4711 75.9032 41.8082 76.9626C41.6473 77.0699 41.4596 77.1101 41.2718 77.1101ZM22.6715 2.01157C11.2995 2.01157 2.04624 11.7342 2.04624 23.6695C2.04624 47.8351 36.4977 71.7191 41.2718 74.9108C46.0459 71.7191 80.4974 47.8351 80.4974 23.6695C80.4974 11.7342 71.2442 2.02498 59.8855 2.02498C52.6573 2.02498 45.8582 6.10176 42.1569 12.6729C41.7948 13.3032 40.7622 13.3032 40.4001 12.6729C36.6989 6.10176 29.8998 2.01157 22.6715 2.01157Z" fill="#21365F"/>
<path d="M66.7517 46.6146C63.104 46.6146 59.6844 47.607 56.7341 49.3101L46.636 46.6146L49.3315 56.7127C47.6284 59.663 46.636 63.0827 46.636 66.7303C46.636 77.8342 55.6478 86.846 66.7517 86.846C77.8555 86.846 86.8674 77.8342 86.8674 66.7303C86.8674 55.6265 77.869 46.6146 66.7517 46.6146Z" fill="white"/>
<path opacity="0.5" d="M78.6468 50.5311C81.1009 53.8703 82.5626 57.9605 82.5626 62.4262C82.5626 73.5301 73.5508 82.5419 62.447 82.5419C57.9947 82.5419 53.8911 81.0801 50.5519 78.626C54.2129 83.6013 60.1001 86.8466 66.7517 86.8466C77.8556 86.8466 86.8674 77.8348 86.8674 66.731C86.8674 60.066 83.6221 54.1922 78.6468 50.5311Z" fill="#0091D7"/>
<path d="M66.7517 87.8522C55.1114 87.8522 45.6302 78.371 45.6302 66.7308C45.6302 63.1904 46.5287 59.6903 48.2453 56.5656L45.657 46.8699C45.5632 46.5212 45.657 46.1591 45.9118 45.9043C46.1666 45.6495 46.5287 45.5557 46.8774 45.6495L56.5731 48.2377C59.6844 46.5212 63.1979 45.6227 66.7383 45.6227C78.3785 45.6227 87.8597 55.1039 87.8597 66.7442C87.8597 78.3844 78.4054 87.8522 66.7517 87.8522ZM48.0575 48.0232L50.297 56.4315C50.3641 56.6863 50.3239 56.968 50.1898 57.1959C48.5135 60.0926 47.6284 63.3916 47.6284 66.7174C47.6284 77.258 56.1977 85.8273 66.7383 85.8273C77.2789 85.8273 85.8616 77.258 85.8616 66.7308C85.8616 56.2036 77.2923 47.6209 66.7517 47.6209C63.4259 47.6209 60.1269 48.506 57.2303 50.1823C57.0023 50.3164 56.7207 50.3432 56.4659 50.2895L48.0575 48.0232Z" fill="#21365F"/>
<path opacity="0.5" d="M79.7464 64.4509L74.5968 59.3013L64.3378 69.5469L59.4028 64.6118L54.2666 69.7614L64.3378 79.8461L79.7464 64.4509Z" fill="#0091D7"/>
<path d="M77.4801 62.1845L74.5968 59.3013L64.3512 69.5469L59.4162 64.6118L56.5329 67.4951L63.3991 74.3612C63.9221 74.8842 64.7669 74.8842 65.29 74.3612L77.4801 62.1845Z" fill="white"/>
<path d="M64.3378 80.8521C64.083 80.8521 63.8282 80.7582 63.6271 80.5571L53.5424 70.4724C53.1535 70.0835 53.1535 69.4398 53.5424 69.0509L58.692 63.9013C59.0809 63.5124 59.7246 63.5124 60.1135 63.9013L64.3378 68.1256L73.8726 58.5907C74.2615 58.2018 74.9052 58.2018 75.2942 58.5907L80.4438 63.7404C80.6315 63.9281 80.7388 64.1829 80.7388 64.4511C80.7388 64.7193 80.6315 64.9741 80.4438 65.1619L65.062 80.5571C64.8608 80.7448 64.606 80.8521 64.3378 80.8521ZM55.6881 69.7617L64.3512 78.4248L78.3249 64.4511L74.5968 60.723L65.062 70.2578C64.6731 70.6467 64.0294 70.6467 63.6405 70.2578L59.4162 66.0336L55.6881 69.7617Z" fill="#21365F"/>
<path d="M8.25529 83.8288H6.40465C5.85482 83.8288 5.39886 83.3729 5.39886 82.823C5.39886 82.2732 5.85482 81.8173 6.40465 81.8173H8.25529C8.80512 81.8173 9.26108 82.2732 9.26108 82.823C9.26108 83.3729 8.81853 83.8288 8.25529 83.8288Z" fill="#21365F"/>
<path d="M14.4509 83.8288H12.6003C12.0504 83.8288 11.5945 83.3729 11.5945 82.823C11.5945 82.2732 12.0504 81.8173 12.6003 81.8173H14.4509C15.0007 81.8173 15.4567 82.2732 15.4567 82.823C15.4567 83.3729 15.0007 83.8288 14.4509 83.8288Z" fill="#21365F"/>
<path d="M10.4278 87.8518C9.87794 87.8518 9.42198 87.3959 9.42198 86.846V84.9954C9.42198 84.4456 9.87794 83.9896 10.4278 83.9896C10.9776 83.9896 11.4336 84.4456 11.4336 84.9954V86.846C11.4336 87.3959 10.9776 87.8518 10.4278 87.8518Z" fill="#21365F"/>
<path d="M10.4278 81.6562C9.87794 81.6562 9.42198 81.2002 9.42198 80.6504V78.7997C9.42198 78.2499 9.87794 77.7939 10.4278 77.7939C10.9776 77.7939 11.4336 78.2499 11.4336 78.7997V80.6504C11.4336 81.2136 10.9776 81.6562 10.4278 81.6562Z" fill="#21365F"/>
<path d="M2.89111 55.6664H1.04047C0.490639 55.6664 0.0346832 55.2104 0.0346832 54.6606C0.0346832 54.1107 0.490639 53.6548 1.04047 53.6548H2.89111C3.44094 53.6548 3.89689 54.1107 3.89689 54.6606C3.89689 55.2104 3.45435 55.6664 2.89111 55.6664Z" fill="#21365F"/>
<path d="M9.08674 55.6664H7.22269C6.67286 55.6664 6.2169 55.2104 6.2169 54.6606C6.2169 54.1107 6.67286 53.6548 7.22269 53.6548H9.07333C9.62316 53.6548 10.0791 54.1107 10.0791 54.6606C10.0925 55.2104 9.63657 55.6664 9.08674 55.6664Z" fill="#21365F"/>
<path d="M5.06358 59.6898C4.51376 59.6898 4.0578 59.2339 4.0578 58.6841V56.8334C4.0578 56.2836 4.51376 55.8276 5.06358 55.8276C5.61341 55.8276 6.06937 56.2836 6.06937 56.8334V58.6841C6.06937 59.2339 5.61341 59.6898 5.06358 59.6898Z" fill="#21365F"/>
<path d="M5.06358 53.4942C4.51376 53.4942 4.0578 53.0382 4.0578 52.4884V50.6377C4.0578 50.0879 4.51376 49.632 5.06358 49.632C5.61341 49.632 6.06937 50.0879 6.06937 50.6377V52.4884C6.06937 53.0516 5.61341 53.4942 5.06358 53.4942Z" fill="#21365F"/>
<path d="M20.3247 73.1004H18.4741C17.9242 73.1004 17.4683 72.6445 17.4683 72.0947C17.4683 71.5448 17.9242 71.0889 18.4741 71.0889H20.3247C20.8745 71.0889 21.3305 71.5448 21.3305 72.0947C21.3305 72.6445 20.8879 73.1004 20.3247 73.1004Z" fill="#21365F"/>
<path d="M26.5203 73.1004H24.6697C24.1198 73.1004 23.6639 72.6445 23.6639 72.0947C23.6639 71.5448 24.1198 71.0889 24.6697 71.0889H26.5203C27.0701 71.0889 27.5261 71.5448 27.5261 72.0947C27.5261 72.6445 27.0701 73.1004 26.5203 73.1004Z" fill="#21365F"/>
<path d="M22.4972 77.1234C21.9473 77.1234 21.4914 76.6675 21.4914 76.1177V74.267C21.4914 73.7172 21.9473 73.2612 22.4972 73.2612C23.047 73.2612 23.503 73.7172 23.503 74.267V76.1177C23.503 76.6675 23.047 77.1234 22.4972 77.1234Z" fill="#21365F"/>
<path d="M22.4972 70.9276C21.9473 70.9276 21.4914 70.4717 21.4914 69.9219V68.0712C21.4914 67.5214 21.9473 67.0654 22.4972 67.0654C23.047 67.0654 23.503 67.5214 23.503 68.0712V69.9219C23.503 70.4851 23.047 70.9276 22.4972 70.9276Z" fill="#21365F"/>
</svg>
