<svg width="51" height="49" viewBox="0 0 51 49" fill="none" xmlns="http://www.w3.org/2000/svg">
<path d="M25.1125 47.775C38.3052 47.775 49 37.3544 49 24.5C49 11.6455 38.3052 1.22498 25.1125 1.22498C11.9198 1.22498 1.22501 11.6455 1.22501 24.5C1.22501 37.3544 11.9198 47.775 25.1125 47.775Z" fill="white"/>
<path opacity="0.5" d="M37.3359 3.67505C39.4182 7.19628 40.637 11.31 40.637 15.7116C40.637 28.7977 30.0226 39.4121 16.9365 39.4121C12.535 39.4121 8.43815 38.1932 4.89999 36.111C9.03066 43.0857 16.5979 47.775 25.2994 47.775C38.3855 47.775 48.9999 37.1606 48.9999 24.0745C49.0169 15.373 44.3106 7.78879 37.3359 3.67505Z" fill="#0091D7"/>
<path d="M25.1125 49C11.2708 49 0 38.0041 0 24.5C0 10.9959 11.2708 0 25.1125 0C38.9542 0 50.225 10.9959 50.225 24.5C50.225 38.0041 38.9712 49 25.1125 49ZM25.1125 2.49153C12.6669 2.49153 2.55381 12.358 2.55381 24.5C2.55381 36.642 12.6669 46.5085 25.1125 46.5085C37.5581 46.5085 47.6712 36.642 47.6712 24.5C47.6712 12.358 37.5581 2.49153 25.1125 2.49153Z" fill="#21365F"/>
<path opacity="0.5" d="M41.0323 17.3365L34.724 11.0282L22.1567 23.579L16.1113 17.5336L9.81943 23.8419L22.1567 36.1956L41.0323 17.3365Z" fill="#0091D7"/>
<path d="M38.256 14.5602L34.724 11.0282L22.1731 23.579L16.1277 17.5336L12.5957 21.0656L21.0068 29.4766C21.6474 30.1173 22.6824 30.1173 23.3231 29.4766L38.256 14.5602Z" fill="white"/>
<path d="M22.1567 37.4275C21.8446 37.4275 21.5324 37.3125 21.286 37.0661L8.9323 24.7124C8.4559 24.236 8.4559 23.4474 8.9323 22.971L15.2406 16.6628C15.717 16.1864 16.5055 16.1864 16.9819 16.6628L22.1567 21.8375L33.8369 10.1574C34.3133 9.68095 35.1018 9.68095 35.5782 10.1574L41.8865 16.4656C42.1165 16.6956 42.2479 17.0077 42.2479 17.3363C42.2479 17.6649 42.1165 17.977 41.8865 18.207L23.0438 37.0661C22.7974 37.2961 22.4852 37.4275 22.1567 37.4275ZM11.5607 23.8417L22.1731 34.4541L39.2909 17.3363L34.724 12.7694L23.0438 24.4495C22.5674 24.9259 21.7788 24.9259 21.3024 24.4495L16.1277 19.2748L11.5607 23.8417Z" fill="#21365F"/>
</svg>
