<svg width="39" height="35" viewBox="0 0 39 35" fill="none" xmlns="http://www.w3.org/2000/svg">
<path d="M25.7026 5.7597C20.1962 0.253276 11.2559 0.253276 5.74946 5.7597C1.36058 10.1486 0.486865 16.6913 3.08769 21.9539L2.43748 27.1758C2.31557 28.2527 3.2096 29.1468 4.2865 29.0249L9.48814 28.395C14.7507 30.9958 21.3138 30.1018 25.6823 25.7332C31.2091 20.2065 31.2091 11.2661 25.7026 5.7597Z" stroke="white" stroke-width="1.3325" stroke-miterlimit="10" stroke-linecap="round" stroke-linejoin="round"/>
<path d="M11.0325 15.7363H20.4198" stroke="white" stroke-width="1.3325" stroke-miterlimit="10" stroke-linecap="round" stroke-linejoin="round"/>
<path d="M25.8043 5.84082C28.7505 6.2472 31.5748 7.58825 33.8302 9.84365C38.2191 14.2325 39.0928 20.7752 36.492 26.0378L37.1219 31.2395C37.2438 32.3164 36.3498 33.2104 35.2729 33.0885L30.0712 32.4586C24.8086 35.0594 18.2456 34.1654 13.8771 29.7968C13.8567 29.7765 13.8364 29.7562 13.7958 29.7155" stroke="white" stroke-width="1.3325" stroke-miterlimit="10" stroke-linecap="round" stroke-linejoin="round"/>
</svg>
